<svg xmlns="http://www.w3.org/2000/svg" version="1.1" xmlns:xlink="http://www.w3.org/1999/xlink" width="512" height="512" x="0" y="0" viewBox="0 0 512 512" style="enable-background:new 0 0 512 512" xml:space="preserve"><g><path d="M205.746 77.478a10 10 0 0 0 10-10V29.846a10 10 0 0 0-20 0v37.632a10 10 0 0 0 10 10zM118.029 93.661a10 10 0 0 0 17.321-10l-18.817-32.59a10 10 0 0 0-17.32 10zM31.226 136.379 63.815 155.2a10 10 0 1 0 10-17.32l-32.589-18.821a10 10 0 1 0-10 17.32zM57.632 225.592a10 10 0 0 0-10-10H10a10 10 0 0 0 0 20h37.632a10 10 0 0 0 10-10zM77.476 299.649a10 10 0 0 0-13.661-3.66l-32.589 18.816a10 10 0 1 0 10 17.32l32.589-18.815a10 10 0 0 0 3.661-13.661zM342.688 156.536a9.953 9.953 0 0 0 4.99-1.341l32.59-18.816a10 10 0 1 0-10-17.32l-32.59 18.816a10 10 0 0 0 5.01 18.661zM279.8 97.321a10 10 0 0 0 13.66-3.66l18.815-32.59a10 10 0 0 0-17.32-10l-18.815 32.59a10 10 0 0 0 3.66 13.66zM162.525 290.2q5.259 0 10.478.515a85.595 85.595 0 0 1 99.564-41.8 105.477 105.477 0 0 1 42.621-34.329A109.99 109.99 0 1 0 122.873 297.9a105.421 105.421 0 0 1 39.652-7.7z" fill="#000000" opacity="1" data-original="#000000"></path><path d="M438.936 338.585a85.6 85.6 0 0 0-158.164-64.635 65.622 65.622 0 0 0-95.433 39.313 85.985 85.985 0 1 0-22.814 168.891h267.4a72.067 72.067 0 0 0 9.011-143.569z" fill="#000000" opacity="1" data-original="#000000"></path></g></svg>